# xmcd CD database file
#
# Track frame offsets:
#	150
#	30862
#	47852
#	68280
#	87590
#	111755
#	123330
#	147555
#	162337
#
# Disc length: 2401 seconds
#
# Revision: 0
# Processed by: cddbd v1.4PL0 Copyright (c) Steve Scherf et al.
# Submitted via: CDex 1.50Beta7
#
DISCID=73095f09
DTITLE=larry arlotta trio - i believe in you
DYEAR=1900
DGENRE=Jazz
TTITLE0=in your own sweet way
TTITLE1=man that was a dream
TTITLE2=who can i turn to
TTITLE3=a child is born
TTITLE4=there is no greater love
TTITLE5=st. thomas
TTITLE6=someone to watch over me
TTITLE7=i believe in you
TTITLE8=do nothin' till you hear from me
EXTD=
EXTT0=
EXTT1=
EXTT2=
EXTT3=
EXTT4=
EXTT5=
EXTT6=
EXTT7=
EXTT8=
PLAYORDER=
